<svg width="104" height="104" viewBox="0 0 104 104" fill="none" xmlns="http://www.w3.org/2000/svg">
<path d="M53.8724 2.87114L55.6274 4.85486C56.7928 6.17216 58.7547 6.42002 60.2111 5.43392L62.4042 3.94896C63.6476 3.10706 65.3475 3.54349 66.0315 4.88027L67.2379 7.2381C68.0391 8.80384 69.8778 9.53183 71.5337 8.9389L74.0272 8.046C75.4409 7.53977 76.9788 8.38522 77.3088 9.85011L77.891 12.4339C78.2777 14.1497 79.8775 15.3121 81.6288 15.1496L84.2661 14.9048C85.7613 14.7661 87.0406 15.9674 86.996 17.4684L86.9173 20.1158C86.8651 21.8738 88.1256 23.3976 89.8623 23.6757L92.4776 24.0945C93.9603 24.3319 94.9006 25.8137 94.4842 27.2564L93.7496 29.8011C93.2618 31.4909 94.1038 33.2802 95.7168 33.9815L98.1457 35.0376C99.5228 35.6363 100.065 37.3053 99.3029 38.5991L97.9586 40.8812C97.0659 42.3966 97.4365 44.3391 98.8243 45.4195L100.914 47.0464C102.099 47.9688 102.209 49.7203 101.149 50.7839L99.2799 52.6599C98.0383 53.9058 97.9142 55.8794 98.9898 57.271L100.61 59.3666C101.528 60.5546 101.199 62.2785 99.9078 63.0451L97.6304 64.3972C96.118 65.2952 95.5069 67.1759 96.2027 68.7913L97.2504 71.2238C97.8444 72.603 97.0972 74.1909 95.6559 74.6123L93.1137 75.3556C91.4256 75.8492 90.366 77.5189 90.6381 79.2565L91.048 81.8732C91.2803 83.3567 90.1617 84.7089 88.6609 84.7586L86.0138 84.8464C84.2559 84.9046 82.8144 86.2584 82.6458 88.0091L82.3921 90.6455C82.2482 92.1402 80.8284 93.1717 79.3624 92.8467L76.7766 92.2733C75.0595 91.8926 73.3265 92.8453 72.7279 94.4991L71.8265 96.9896C71.3154 98.4015 69.6837 99.0476 68.3446 98.3681L65.9826 97.1698C64.4142 96.374 62.4987 96.8658 61.5076 98.3188L60.0152 100.507C59.169 101.747 57.4279 101.967 56.2998 100.976L54.3101 99.228C52.9888 98.0672 51.0112 98.0672 49.6899 99.228L47.7002 100.976C46.5721 101.967 44.831 101.747 43.9848 100.507L42.4924 98.3188C41.5013 96.8658 39.5858 96.374 38.0174 97.1698L35.6554 98.3681C34.3163 99.0476 32.6846 98.4015 32.1735 96.9896L31.2721 94.4991C30.6735 92.8453 28.9405 91.8926 27.2234 92.2733L24.6376 92.8467C23.1716 93.1717 21.7518 92.1402 21.6079 90.6455L21.3542 88.0091C21.1857 86.2584 19.7441 84.9046 17.9862 84.8464L15.3391 84.7586C13.8383 84.7089 12.7197 83.3567 12.952 81.8732L13.3619 79.2565C13.634 77.5189 12.5744 75.8492 10.8863 75.3556L8.34412 74.6123C6.90285 74.1909 6.15564 72.603 6.74964 71.2238L7.79734 68.7913C8.49308 67.1759 7.88197 65.2952 6.36963 64.3972L4.09221 63.0451C2.80102 62.2785 2.47217 60.5546 3.39049 59.3666L5.01022 57.271C6.08583 55.8794 5.96165 53.9057 4.72012 52.6599L2.85052 50.7839C1.79053 49.7203 1.90073 47.9688 3.08566 47.0464L5.17565 45.4195C6.56354 44.3391 6.93409 42.3966 6.04138 40.8812L4.69706 38.5991C3.9349 37.3053 4.47721 35.6363 5.8543 35.0376L8.28322 33.9815C9.89618 33.2802 10.7382 31.4909 10.2504 29.8011L9.51583 27.2564C9.09937 25.8137 10.0397 24.3319 11.5224 24.0945L14.1377 23.6757C15.8744 23.3976 17.1349 21.8738 17.0827 20.1158L17.004 17.4684C16.9594 15.9674 18.2387 14.7661 19.7339 14.9048L22.3712 15.1496C24.1225 15.3121 25.7223 14.1497 26.109 12.4339L26.6912 9.85011C27.0212 8.38522 28.5591 7.53977 29.9728 8.046L32.4663 8.9389C34.1222 9.53183 35.9609 8.80384 36.7621 7.2381L37.9685 4.88027C38.6525 3.54349 40.3524 3.10706 41.5958 3.94896L43.7889 5.43391C45.2453 6.42002 47.2072 6.17216 48.3726 4.85485L50.1276 2.87114C51.1225 1.74647 52.8775 1.74647 53.8724 2.87114Z" fill="#E4E0EF" stroke="#543E31"/>
<path d="M43.5049 48.3214V70.2991H61.1008C61.6143 70.3334 63.3945 70.4361 65.0718 69.2037C66.2358 68.3479 66.7835 67.2866 67.0232 66.7731C67.9132 62.4939 68.769 58.1806 69.6592 53.9014C70.823 50.5466 68.2898 46.5413 64.3872 46.5413C61.5458 46.5413 58.7387 46.5413 55.8973 46.5413V38.5307C55.9658 34.0803 52.029 32.0948 49.975 35.1073C47.8183 39.5234 45.6616 43.9053 43.5049 48.3214ZM43.5049 48.3214L43.505 70.3334H37.2403C35.4944 70.3334 34.0566 68.8956 34.0566 67.1497V51.5051C34.0566 49.7592 35.4944 48.3214 37.2403 48.3214H43.5049Z" stroke="#543E31" stroke-width="1.66667" stroke-linecap="round" stroke-linejoin="round"/>
</svg>
