<svg width="56" height="56" viewBox="0 0 56 56" fill="none" xmlns="http://www.w3.org/2000/svg">
<circle cx="28" cy="28" r="27.5" stroke="#543E31" stroke-dasharray="2 2"/>
<path d="M23.0648 33.5151L19.8149 30.2652C19.6288 30.0854 19.3795 29.986 19.1207 29.9882C18.862 29.9905 18.6145 30.0942 18.4315 30.2772C18.2485 30.4602 18.1447 30.7077 18.1425 30.9665C18.1402 31.2253 18.2397 31.4745 18.4195 31.6607L22.298 35.5392C22.5015 35.7426 22.7775 35.8568 23.0653 35.8568C23.353 35.8568 23.629 35.7426 23.8326 35.5392L37.5801 21.7917C37.6717 21.7 37.7444 21.5911 37.7939 21.4714C37.8435 21.3516 37.869 21.2232 37.8689 21.0936C37.8689 20.964 37.8433 20.8356 37.7936 20.7159C37.744 20.5961 37.6713 20.4873 37.5796 20.3957C37.4879 20.3041 37.379 20.2314 37.2592 20.1818C37.1395 20.1323 37.0111 20.1068 36.8815 20.1068C36.7518 20.1069 36.6235 20.1325 36.5038 20.1821C36.384 20.2318 36.2752 20.3045 36.1836 20.3962L23.0648 33.5151Z" fill="#E4A951"/>
</svg>
