<svg width="32" height="32" viewBox="0 0 32 32" fill="none" xmlns="http://www.w3.org/2000/svg">
<path fill-rule="evenodd" clip-rule="evenodd" d="M12.2343 21.1333C11.3467 21.1333 10.4819 21.4145 9.76399 21.9366L8.63196 22.7599C7.43098 23.6333 8.04882 25.5333 9.53382 25.5333H22.4662C23.9512 25.5333 24.569 23.6333 23.368 22.7599L22.236 21.9366C21.5181 21.4145 20.6533 21.1333 19.7657 21.1333H12.2343ZM8.4308 20.1035C9.53608 19.2996 10.8676 18.8666 12.2343 18.8666H19.7657C21.1324 18.8666 22.4639 19.2996 23.5692 20.1035L24.7012 20.9268C27.6775 23.0914 26.1464 27.8 22.4662 27.8H9.53382C5.85359 27.8 4.32244 23.0914 7.29877 20.9268L8.4308 20.1035Z" fill="#543e31"/>
<path fill-rule="evenodd" clip-rule="evenodd" d="M16 6.46668C13.6804 6.46668 11.8 8.34708 11.8 10.6667C11.8 12.9863 13.6804 14.8667 16 14.8667C18.3196 14.8667 20.2 12.9863 20.2 10.6667C20.2 8.34708 18.3196 6.46668 16 6.46668ZM9.53334 10.6667C9.53334 7.09524 12.4286 4.20001 16 4.20001C19.5714 4.20001 22.4667 7.09524 22.4667 10.6667C22.4667 14.2381 19.5714 17.1333 16 17.1333C12.4286 17.1333 9.53334 14.2381 9.53334 10.6667Z" fill="#543e31"/>
</svg>
