<svg width="256" height="256" viewBox="0 0 256 256" fill="none" xmlns="http://www.w3.org/2000/svg">
<path d="M226.53 56.41L130.53 24.41C128.888 23.8625 127.112 23.8625 125.47 24.41L29.47 56.41C27.877 56.941 26.4916 57.9598 25.5098 59.322C24.5281 60.6842 23.9999 62.3209 24 64V144C24 146.122 24.8429 148.157 26.3431 149.657C27.8434 151.157 29.8783 152 32 152C34.1217 152 36.1566 151.157 37.6569 149.657C39.1571 148.157 40 146.122 40 144V75.1L73.59 86.29C64.6656 100.708 61.8277 118.078 65.6994 134.587C69.5711 151.096 79.8359 165.393 94.24 174.34C76.24 181.4 60.68 194.17 49.3 211.63C48.7082 212.51 48.2971 213.498 48.0906 214.538C47.8842 215.578 47.8865 216.649 48.0974 217.688C48.3084 218.727 48.7237 219.713 49.3193 220.59C49.915 221.467 50.679 222.217 51.567 222.797C52.455 223.376 53.4493 223.773 54.4921 223.964C55.5348 224.156 56.6053 224.138 57.6412 223.912C58.677 223.687 59.6577 223.257 60.5262 222.649C61.3946 222.041 62.1336 221.266 62.7 220.37C77.77 197.25 101.57 184 128 184C154.43 184 178.23 197.25 193.3 220.37C194.473 222.114 196.286 223.326 198.346 223.744C200.406 224.162 202.547 223.753 204.308 222.605C206.068 221.457 207.306 219.661 207.754 217.608C208.202 215.554 207.823 213.407 206.7 211.63C195.32 194.17 179.7 181.4 161.76 174.34C176.15 165.393 186.405 151.105 190.276 134.609C194.148 118.112 191.319 100.754 182.41 86.34L226.53 71.64C228.123 71.1093 229.509 70.0906 230.491 68.7284C231.473 67.3661 232.002 65.7293 232.002 64.05C232.002 62.3706 231.473 60.7339 230.491 59.3716C229.509 58.0094 228.123 56.9907 226.53 56.46V56.41ZM176 120C176.002 127.589 174.205 135.069 170.756 141.829C167.307 148.589 162.305 154.434 156.159 158.886C150.014 163.338 142.9 166.269 135.403 167.439C127.905 168.61 120.236 167.986 113.026 165.618C105.817 163.251 99.2707 159.208 93.9259 153.821C88.5811 148.434 84.5897 141.857 82.2791 134.629C79.9685 127.4 79.4047 119.727 80.6338 112.239C81.863 104.751 84.85 97.6604 89.35 91.55L125.47 103.55C127.112 104.097 128.888 104.097 130.53 103.55L166.65 91.55C172.728 99.7899 176.005 109.761 176 120Z" fill="#E4A951"/>
</svg>
