<svg width="221" height="24" viewBox="0 0 221 24" fill="none" xmlns="http://www.w3.org/2000/svg">
<path d="M20.3749 19.25H16.5398L18.9367 4.75893H22.7722L20.3749 19.25ZM13.3135 4.75893L9.6573 14.726L9.22466 12.5797L9.22505 12.5805L7.9346 6.06369C7.9346 6.06369 7.77856 4.75893 6.11536 4.75893H0.0709257L0 5.0043C0 5.0043 1.8484 5.38263 4.01163 6.66063L7.34355 19.2504H11.3394L17.441 4.75893H13.3135ZM43.4786 19.25H47L43.9297 4.75855H40.8468C39.4232 4.75855 39.0764 5.83848 39.0764 5.83848L33.3567 19.25H37.3545L38.154 17.0975H43.0294L43.4786 19.25ZM39.2585 14.124L41.2736 8.7011L42.4072 14.124H39.2585ZM33.6565 8.2437L34.2039 5.13183C34.2039 5.13183 32.515 4.5 30.7545 4.5C28.8513 4.5 24.3318 5.31828 24.3318 9.29727C24.3318 13.041 29.6362 13.0875 29.6362 15.0539C29.6362 17.0203 24.8783 16.668 23.3081 15.428L22.7379 18.6817C22.7379 18.6817 24.4504 19.5 27.0668 19.5C29.6839 19.5 33.6321 18.1669 33.6321 14.5388C33.6321 10.771 28.28 10.4202 28.28 8.78211C28.2804 7.14362 32.0154 7.3541 33.6565 8.2437Z" fill="#2566AF"/>
<path d="M9.22505 12.5805L7.9346 6.06369C7.9346 6.06369 7.77856 4.75893 6.11536 4.75893H0.0709257L0 5.0043C0 5.0043 2.90519 5.59621 5.69178 7.81538C8.35621 9.93647 9.22505 12.5805 9.22505 12.5805Z" fill="#E6A540"/>
<g clip-path="url(#clip0_14_952)">
<path fill-rule="evenodd" clip-rule="evenodd" d="M74.4813 20.48C76.5053 22.3591 79.2234 23.4988 82.18 23.4988C88.5295 23.4988 93.6686 18.2809 93.6686 11.8633C93.6686 5.42613 88.5295 0.208008 82.18 0.208008C79.2234 0.208008 76.5053 1.34754 74.4813 3.22683C72.1598 5.36589 70.6913 8.44471 70.6913 11.8633C70.6915 15.2819 72.1598 18.361 74.4813 20.48V20.48Z" fill="#FE9A0C"/>
<path fill-rule="evenodd" clip-rule="evenodd" d="M92.1413 18.3407C92.1413 18.1407 92.3001 17.981 92.4984 17.981C92.7165 17.981 92.8751 18.141 92.8751 18.3407C92.8751 18.561 92.7163 18.7207 92.4984 18.7207C92.3001 18.7207 92.1413 18.561 92.1413 18.3407ZM92.4984 18.641C92.6572 18.641 92.7957 18.5007 92.7957 18.341C92.7957 18.1812 92.6569 18.0612 92.4984 18.0612C92.3592 18.0612 92.2207 18.1812 92.2207 18.341C92.2207 18.5007 92.3594 18.641 92.4984 18.641ZM92.4587 18.521H92.3793V18.181H92.518C92.5381 18.181 92.5778 18.181 92.5974 18.2012C92.6371 18.221 92.6371 18.2412 92.6371 18.2812C92.6371 18.3212 92.6175 18.3612 92.5778 18.3612L92.6572 18.5212H92.5577L92.518 18.381H92.4587V18.521V18.321H92.5381C92.5577 18.321 92.5577 18.3007 92.5577 18.281C92.5577 18.2607 92.5577 18.2607 92.5381 18.241H92.4587V18.521V18.521Z" fill="#E9B040"/>
<path fill-rule="evenodd" clip-rule="evenodd" d="M78.1919 10.624C78.1522 10.2042 78.0728 9.80448 77.9934 9.38448H70.9692C71.0486 8.96471 71.1677 8.56495 71.2866 8.16495H77.6562C77.5179 7.74409 77.359 7.3304 77.18 6.92542H71.7828C71.9814 6.50195 72.1999 6.0883 72.4377 5.68589H76.5056C76.2438 5.25892 75.9521 4.85137 75.6326 4.46636H73.3108C73.67 4.02446 74.0613 3.61014 74.4815 3.22683C72.4379 1.36754 69.7392 0.208008 66.7628 0.208008C60.4331 0.208008 55.2742 5.42613 55.2742 11.8633C55.2742 18.2809 60.4331 23.4988 66.7628 23.4988C69.7392 23.4988 72.4377 22.3591 74.4815 20.48C74.8954 20.1034 75.2802 19.6956 75.6326 19.2602H73.3108C72.9932 18.8605 72.7156 18.4607 72.4377 18.0207H76.5056C76.7614 17.6254 76.9869 17.211 77.1802 16.7812H71.7828C71.6042 16.3814 71.4258 15.9817 71.2866 15.5614H77.6562C77.7949 15.1617 77.8944 14.7421 77.9932 14.3219C78.0726 13.9221 78.152 13.5026 78.1917 13.0824C78.2319 12.677 78.2518 12.2699 78.2515 11.8626C78.2515 11.4435 78.2316 11.0238 78.1919 10.624V10.624Z" fill="#EC0020"/>
<path fill-rule="evenodd" clip-rule="evenodd" d="M92.1413 14.5621C92.1413 14.3424 92.3001 14.1826 92.4984 14.1826C92.7165 14.1826 92.8751 14.3426 92.8751 14.5621C92.8751 14.7621 92.7163 14.9421 92.4984 14.9421C92.3001 14.9421 92.1413 14.7619 92.1413 14.5621ZM92.4984 14.8419C92.6572 14.8419 92.7957 14.7219 92.7957 14.5621C92.7957 14.4024 92.6569 14.2824 92.4984 14.2824C92.3592 14.2824 92.2207 14.4024 92.2207 14.5621C92.2207 14.7219 92.3594 14.8419 92.4984 14.8419ZM92.4587 14.7219H92.3793V14.4021H92.5974C92.6371 14.4224 92.6371 14.4624 92.6371 14.5024C92.6371 14.5221 92.6175 14.5621 92.5778 14.5824L92.6572 14.7221H92.5577L92.518 14.6021H92.4587V14.7219V14.5421H92.4984C92.518 14.5421 92.5381 14.5421 92.5381 14.5219C92.5577 14.5219 92.5577 14.5021 92.5577 14.4819C92.5577 14.4819 92.5577 14.4621 92.5381 14.4621C92.5381 14.4419 92.518 14.4621 92.4984 14.4621H92.4587V14.7219V14.7219Z" fill="white"/>
<path fill-rule="evenodd" clip-rule="evenodd" d="M82.0812 9.18453L81.8626 10.4641C81.4261 10.2441 81.1085 10.1443 80.7514 10.1443C79.8187 10.1443 79.1641 11.0638 79.1641 12.3634C79.1641 13.2631 79.6006 13.8026 80.335 13.8026C80.6323 13.8026 80.9896 13.7029 81.3864 13.5031L81.1683 14.8422C80.7117 14.9622 80.4142 15.0224 80.0767 15.0224C78.7276 15.0224 77.8941 14.0426 77.8941 12.4636C77.8941 10.3643 79.045 8.88477 80.6919 8.88477C80.91 8.88477 81.1083 8.90476 81.2671 8.94476L81.7633 9.06477C81.9224 9.12477 81.9621 9.14477 82.0812 9.18453V9.18453ZM78.0728 10.0643H77.9537C77.5373 10.0643 77.2991 10.2643 76.922 10.8438L77.0411 10.1041H75.9098L75.1364 14.9022H76.3867C76.8428 11.9634 76.9619 11.4636 77.5572 11.4636H77.6366C77.7557 10.8838 77.9142 10.4638 78.1127 10.0841L78.0728 10.0643V10.0643ZM70.89 14.8422C70.5528 14.9622 70.2749 15.0022 69.9972 15.0022C69.3623 15.0022 69.005 14.6424 69.005 13.9429C69.005 13.8229 69.0248 13.6631 69.0447 13.5229L69.1241 13.0431L69.1836 12.6636L69.7193 9.38453H70.9496L70.8106 10.1043H71.4456L71.2868 11.2838H70.6518L70.3146 13.2831C70.2948 13.3631 70.2948 13.4234 70.2948 13.4831C70.2948 13.7231 70.4139 13.8231 70.7114 13.8231C70.8503 13.8231 70.9692 13.8231 71.0486 13.7831L70.89 14.8422V14.8422ZM66.108 11.6236C66.108 12.2236 66.3856 12.6431 67.0405 12.9631C67.5563 13.2031 67.6357 13.2829 67.6357 13.4829C67.6357 13.7829 67.4174 13.9226 66.9214 13.9226C66.5444 13.9226 66.207 13.8629 65.8102 13.7429L65.6316 14.8422L65.6911 14.8624L65.9095 14.9024C65.9886 14.9222 66.0881 14.9424 66.2467 14.9424C66.5244 14.9824 66.7626 14.9824 66.9214 14.9824C68.2308 14.9824 68.8461 14.4824 68.8461 13.3831C68.8461 12.7231 68.5883 12.3431 67.9732 12.0436C67.4375 11.8036 67.3779 11.7438 67.3779 11.5238C67.3779 11.2641 67.5963 11.1441 67.9931 11.1441C68.2313 11.1441 68.5685 11.1641 68.8861 11.2041L69.0645 10.1045C68.7471 10.0445 68.2511 10.0045 67.9732 10.0045C66.5842 10.0043 66.0881 10.7441 66.108 11.6236V11.6236ZM91.5857 14.9024H90.4148L90.4746 14.4424C90.1371 14.8022 89.7798 14.9622 89.3232 14.9622C88.4106 14.9622 87.8153 14.1829 87.8153 12.9834C87.8153 11.3838 88.7481 10.0243 89.8391 10.0243C90.3354 10.0243 90.6925 10.2443 91.0301 10.6841L91.3078 9.00477H92.5381L91.5857 14.9024V14.9024ZM89.76 13.7829C90.3356 13.7829 90.7324 13.1031 90.7324 12.1634C90.7324 11.5436 90.5138 11.2236 90.0773 11.2236C89.5218 11.2236 89.1054 11.8834 89.1054 12.8231C89.1054 13.4631 89.3235 13.7829 89.76 13.7829V13.7829ZM74.6997 14.8022C74.2629 14.9424 73.8662 15.0022 73.4098 15.0022C72.0208 15.0022 71.3064 14.2626 71.3064 12.8431C71.3064 11.2038 72.2193 9.98429 73.4694 9.98429C74.5011 9.98429 75.1557 10.6641 75.1557 11.7236C75.1557 12.0836 75.116 12.4236 74.9969 12.9231H72.5369C72.5171 12.9834 72.5171 13.0234 72.5171 13.0634C72.5171 13.6231 72.8942 13.9029 73.6084 13.9029C74.0647 13.9029 74.4614 13.8229 74.8982 13.6029L74.6997 14.8022V14.8022ZM74.0051 11.9434V11.7036C74.0051 11.3038 73.7868 11.0838 73.4098 11.0838C73.0131 11.0838 72.7352 11.3838 72.6161 11.9434H74.0051ZM61.3656 14.9024H60.1354L60.8497 10.3641L59.2426 14.9024H58.3892L58.29 10.4041L57.5362 14.9024H56.3853L57.3575 9.00477H59.1433L59.2029 12.6634L60.3932 9.00477H62.3378L61.3656 14.9024V14.9024ZM64.4413 12.7631C64.3222 12.7631 64.2626 12.7434 64.1633 12.7434C63.4688 12.7434 63.1117 13.0031 63.1117 13.4829C63.1117 13.7829 63.2706 13.9626 63.5482 13.9626C64.0641 13.9626 64.4214 13.4829 64.4413 12.7631ZM65.3539 14.9024H64.3219L64.3418 14.4024C64.0242 14.8022 63.6075 14.9824 63.0321 14.9824C62.3574 14.9824 61.9011 14.4626 61.9011 13.6829C61.9011 12.5036 62.6947 11.8238 64.0837 11.8238C64.2227 11.8238 64.4013 11.8438 64.5996 11.8636C64.6393 11.7038 64.6393 11.6438 64.6393 11.5638C64.6393 11.2441 64.4209 11.1241 63.8455 11.1241C63.4884 11.1241 63.0914 11.1641 62.8138 11.2441L62.6351 11.3041L62.516 11.3241L62.6947 10.2445C63.3098 10.0645 63.7264 10.0045 64.183 10.0045C65.2544 10.0045 65.8298 10.4843 65.8298 11.4038C65.8298 11.6438 65.81 11.8238 65.7306 12.3636L65.4527 14.0631L65.413 14.3626L65.3931 14.6026L65.3733 14.7829L65.3539 14.9024V14.9024ZM84.0853 12.7631C83.9462 12.7631 83.8868 12.7434 83.8077 12.7434C83.0933 12.7434 82.7358 13.0031 82.7358 13.4829C82.7358 13.7829 82.9146 13.9626 83.1923 13.9626C83.6886 13.9626 84.0653 13.4829 84.0853 12.7631V12.7631ZM84.998 14.9024H83.9662L83.9859 14.4024C83.6685 14.8022 83.2519 14.9824 82.6764 14.9824C82.0018 14.9824 81.5452 14.4626 81.5452 13.6829C81.5452 12.5036 82.3387 11.8238 83.7278 11.8238C83.867 11.8238 84.0456 11.8438 84.2241 11.8636C84.2638 11.7038 84.2838 11.6438 84.2838 11.5638C84.2838 11.2441 84.0653 11.1241 83.4903 11.1241C83.1328 11.1241 82.7164 11.1641 82.4385 11.2441L82.2797 11.3041L82.1606 11.3241L82.339 10.2445C82.9543 10.0645 83.3707 10.0045 83.8273 10.0045C84.8987 10.0045 85.4543 10.4843 85.4543 11.4038C85.4543 11.6438 85.4543 11.8238 85.3553 12.3636L85.0972 14.0631L85.0575 14.3626L85.0178 14.6026L84.9982 14.7829V14.9024H84.998V14.9024ZM88.3314 10.0643H88.2123C87.7959 10.0643 87.5577 10.2643 87.1806 10.8438L87.2997 10.1041H86.1685L85.4144 14.9022H86.6446C87.1012 11.9634 87.2203 11.4636 87.8156 11.4636H87.895C88.0141 10.8838 88.1726 10.4638 88.3711 10.0841L88.3314 10.0643V10.0643Z" fill="white"/>
</g>
<path d="M139.962 12.0004C139.962 18.1009 135.017 23.0465 128.917 23.0465C122.817 23.0465 117.872 18.1012 117.872 12.0004C117.872 5.89934 122.817 0.953613 128.917 0.953613C135.017 0.953613 139.962 5.89927 139.962 12.0004Z" fill="#D9222A"/>
<path d="M120.384 19.0147C120.078 18.6437 119.797 18.2529 119.543 17.8449H123.457C123.693 17.4681 123.905 17.0774 124.094 16.6748H118.907C118.728 16.2944 118.572 15.904 118.439 15.5056H124.561C124.929 14.4039 125.129 13.2256 125.129 12.0003C125.129 11.1974 125.043 10.4148 124.881 9.661H118.12C118.205 9.26549 118.312 8.87497 118.441 8.49127H124.56C124.426 8.093 124.27 7.70254 124.093 7.3218H118.908C119.096 6.91952 119.309 6.52894 119.544 6.15201H123.456C123.201 5.74475 122.92 5.35435 122.615 4.98334H120.386C120.728 4.56715 121.101 4.17638 121.5 3.81411C119.54 2.03663 116.938 0.953613 114.084 0.953613C107.984 0.953675 103.039 5.89934 103.039 12.0004C103.039 18.1009 107.984 23.0465 114.084 23.0465C116.939 23.0465 119.541 21.9637 121.501 20.1865C121.901 19.8237 122.274 19.4321 122.617 19.015H120.385" fill="#0097D0"/>
<path d="M136.155 14.3928C136.156 14.1959 136.315 14.0363 136.512 14.0361C136.709 14.0361 136.869 14.1961 136.869 14.3928C136.872 14.5897 136.716 14.7524 136.519 14.7561C136.322 14.7598 136.159 14.6031 136.155 14.4061C136.155 14.4016 136.155 14.3972 136.155 14.3928V14.3928ZM136.512 14.6643C136.662 14.6641 136.783 14.5426 136.783 14.3928C136.783 14.243 136.662 14.1219 136.512 14.1219C136.362 14.1219 136.241 14.2432 136.241 14.3928C136.241 14.5426 136.362 14.6641 136.512 14.6643ZM136.464 14.5495H136.391V14.2366H136.523C136.551 14.2366 136.579 14.2366 136.603 14.252C136.628 14.2692 136.643 14.2993 136.643 14.3302C136.643 14.3658 136.622 14.3988 136.589 14.4112L136.646 14.5494H136.565L136.518 14.4257H136.464V14.5495H136.464V14.5495ZM136.464 14.3718H136.504C136.519 14.3718 136.535 14.3728 136.549 14.3658C136.561 14.3575 136.567 14.344 136.567 14.3296C136.567 14.3169 136.56 14.3052 136.55 14.2981C136.537 14.2901 136.516 14.2921 136.503 14.2921H136.464V14.3718ZM121.688 14.6397C121.216 14.7648 120.759 14.8261 120.277 14.8251C118.738 14.8235 117.936 14.1223 117.936 12.7815C117.936 11.2153 118.956 10.0628 120.342 10.0628C121.475 10.0628 122.199 10.7087 122.199 11.7208C122.199 12.0572 122.149 12.3836 122.03 12.847H119.292C119.195 13.5011 119.673 13.789 120.487 13.789C120.974 13.789 121.415 13.7013 121.904 13.5049L121.688 14.6397ZM120.952 11.9228C120.952 11.8241 121.104 11.1208 120.312 11.1056C119.874 11.1056 119.561 11.3966 119.434 11.9228H120.952V11.9228ZM122.616 11.6153C122.616 12.1943 122.941 12.5938 123.682 12.892C124.248 13.1239 124.337 13.1909 124.337 13.3974C124.337 13.6846 124.087 13.8164 123.532 13.8128C123.114 13.8099 122.734 13.7592 122.285 13.6346L122.085 14.6897C122.485 14.783 123.045 14.8136 123.541 14.8251C125.019 14.8251 125.702 14.3407 125.702 13.2945C125.702 12.6658 125.417 12.2954 124.715 12.02C124.128 11.7856 124.06 11.7345 124.06 11.5225C124.06 11.2733 124.292 11.1472 124.745 11.1472C125.021 11.1472 125.397 11.1728 125.754 11.2157L125.954 10.1544C125.59 10.1036 125.038 10.0631 124.719 10.0631C123.152 10.063 122.611 10.7679 122.616 11.6153M117.185 14.7495H116.037L116.064 14.2683C115.714 14.6472 115.247 14.8241 114.614 14.8241C113.865 14.8241 113.352 14.3118 113.352 13.5757C113.352 12.4554 114.244 11.8098 115.778 11.8098C115.936 11.8098 116.136 11.8216 116.342 11.8445C116.385 11.6947 116.396 11.6306 116.396 11.5486C116.396 11.2419 116.155 11.1293 115.51 11.1293C114.873 11.1319 114.444 11.2262 114.045 11.3332L114.241 10.3057C114.93 10.1304 115.381 10.0629 115.892 10.0629C117.08 10.0629 117.707 10.5286 117.707 11.404C117.718 11.6378 117.636 12.1063 117.596 12.3119C117.549 12.6102 117.219 14.3407 117.185 14.7495V14.7495ZM116.177 12.7065C116.032 12.6915 115.968 12.6873 115.868 12.6873C115.086 12.6873 114.688 12.9205 114.688 13.3808C114.688 13.6696 114.882 13.8505 115.184 13.8505C115.747 13.8504 116.153 13.3795 116.177 12.7065ZM128.122 14.6769C127.745 14.78 127.452 14.8251 127.134 14.8251C126.43 14.8251 126.047 14.4653 126.047 13.8248C126.024 13.6492 126.196 12.8366 126.235 12.6102C126.274 12.383 126.884 9.07227 126.884 9.07227H128.25L128.044 10.1677H128.745L128.554 11.2859H127.85C127.85 11.2859 127.464 13.2262 127.464 13.374C127.464 13.6094 127.606 13.7112 127.933 13.7112C128.09 13.7112 128.211 13.6971 128.304 13.6687L128.122 14.6769M134.92 12.0697C134.92 13.102 134.497 13.7133 133.828 13.7133C133.34 13.7202 133.044 13.3118 133.044 12.6995C133.044 11.9738 133.476 11.1541 134.169 11.1541C134.728 11.1541 134.92 11.5979 134.92 12.0697V12.0697ZM136.396 12.0984C136.396 10.9551 135.645 10.0628 134.23 10.0628C132.602 10.0628 131.55 11.1474 131.55 12.7456C131.55 13.8889 132.171 14.8251 133.713 14.8251C135.269 14.8251 136.396 13.9936 136.396 12.0984ZM129.34 10.1672C129.166 11.5843 128.859 13.021 128.618 14.441L128.56 14.75H129.941C130.439 12.008 130.606 11.2267 131.648 11.5019L132.15 10.2042C131.422 9.93731 130.954 10.3183 130.53 10.8601C130.569 10.6163 130.641 10.3811 130.623 10.1673L129.34 10.1672M112.708 14.7499H111.334L112.151 10.4448L110.269 14.7499H109.016L108.787 10.4696L107.967 14.7499H106.72L107.782 9.14993H109.931L110.045 12.6166L111.557 9.14993H113.792L112.708 14.7499" fill="white"/>
<path fill-rule="evenodd" clip-rule="evenodd" d="M168.402 2V2.00873C168.393 2.00873 165.589 2 164.842 4.62882C164.156 7.0393 162.225 13.6943 162.172 13.8777H161.638C161.638 13.8777 159.662 7.07423 158.968 4.62009C158.22 1.99127 155.408 2 155.408 2H149V22H155.408V10.1223H155.942L159.68 22H164.13L167.868 10.131H168.402V22H174.81V2H168.402Z" fill="#4DB45E"/>
<path fill-rule="evenodd" clip-rule="evenodd" d="M191.808 2C191.808 2 189.931 2.16594 189.049 4.09607L184.511 13.8777H183.977V2H177.569V22H183.621C183.621 22 185.587 21.8253 186.468 19.9039L190.918 10.1223H191.452V22H197.86V2H191.808Z" fill="#4DB45E"/>
<path fill-rule="evenodd" clip-rule="evenodd" d="M200.708 11.083V22H207.116V15.6245H214.058C217.084 15.6245 219.647 13.7293 220.6 11.083H200.708Z" fill="#4DB45E"/>
<path fill-rule="evenodd" clip-rule="evenodd" d="M214.058 2H199.809C200.521 5.80786 203.432 8.86463 207.196 9.86026C208.051 10.0873 208.95 10.2096 209.875 10.2096H220.858C220.956 9.75546 221 9.29258 221 8.81223C221 5.04804 217.894 2 214.058 2Z" fill="url(#paint0_linear_14_952)"/>
<defs>
<linearGradient id="paint0_linear_14_952" x1="199.811" y1="6.10481" x2="221" y2="6.10481" gradientUnits="userSpaceOnUse">
<stop offset="0.3" stop-color="#00B4E6"/>
<stop offset="1" stop-color="#088CCB"/>
</linearGradient>
<clipPath id="clip0_14_952">
<rect width="39" height="24" fill="white" transform="translate(55)"/>
</clipPath>
</defs>
</svg>
