<svg width="117" height="117" viewBox="0 0 117 117" fill="none" xmlns="http://www.w3.org/2000/svg">
<path d="M58.5 0L64.9668 7.30986L73.0484 1.83789L77.4941 10.5263L86.6826 7.23606L88.828 16.7571L98.546 15.8553L98.2562 25.6108L107.893 27.1541L105.186 36.5311L114.137 40.4225L109.183 48.8317L116.885 54.8268L109.995 61.7398L115.964 69.4618L107.572 74.4444L111.432 83.4081L102.065 86.1471L103.575 95.7893L93.8206 96.1126L92.8854 105.827L83.357 103.715L80.0353 112.892L71.3316 108.476L65.832 116.539L58.5 110.097L51.168 116.539L45.6683 108.476L36.9647 112.892L33.643 103.715L24.1146 105.827L23.1794 96.1126L13.425 95.7893L14.9352 86.1471L5.56762 83.4081L9.42834 74.4444L1.0362 69.4618L7.00481 61.7398L0.115437 54.8268L7.81692 48.8317L2.86319 40.4225L11.8136 36.5311L9.10682 27.1541L18.7438 25.6108L18.454 15.8553L28.172 16.7571L30.3174 7.23606L39.5059 10.5263L43.9516 1.83789L52.0332 7.30986L58.5 0Z" fill="#E4A951"/>
</svg>
